<svg xmlns="http://www.w3.org/2000/svg" viewBox="0 0 164 176"><path fill="#e32227" d="M153.7415,75.41509a86.033,86.033,0,0,0-3.072-16.89085l-.0333-.09984a35.02863,35.02863,0,0,0-15.56-20.29565c-.26623-.16632-.5435-.3216-.82076-.47688a43.85719,43.85719,0,0,0-15.08309-5.31234c-.26616-.04441-.54342-.08874-.80958-.111a43.05758,43.05758,0,0,0-9.80406-.3105,45.41828,45.41828,0,0,0-5.41218.77635c-.76525.15522-1.5194.33271-2.26244.52123A44.47819,44.47819,0,0,0,67.668,78.77555c.0222.34381.04434.68761.07764,1.03141l.0111.13309a44.53851,44.53851,0,0,1-40.89076,46.81313,47.49732,47.49732,0,0,1-6.52123.06654,2.333,2.333,0,0,0-.27727-.0222,11.33681,11.33681,0,0,0-8.95006,19.19769c.06654.06654.13308.122.21072.19962.3216.28837.65431.58783.99811.8762a.23328.23328,0,0,0,.06661.04434A85.6507,85.6507,0,0,0,153.32006,93.282a84.14629,84.14629,0,0,0,.6876-12C153.99663,79.35228,153.89678,77.38924,153.7415,75.41509Z"/><path fill="#fff" d="M142.651,69.21553A31.78805,31.78805,0,0,0,116.64375,40.491a21.54661,21.54661,0,0,1,1.719-8.26246,43.05758,43.05758,0,0,0-9.80406-.3105,45.41828,45.41828,0,0,0-5.41218.77635,38.08476,38.08476,0,0,0-1.20883,8.60626A31.78255,31.78255,0,1,0,142.651,69.21553ZM112.518,90.98623a19.271,19.271,0,1,1,17.6783-20.7615A19.27062,19.27062,0,0,1,112.518,90.98623Z"/><path fill="#36a018" d="M140.52161,19.042a21.326,21.326,0,0,0-3.85948-.0333,21.81984,21.81984,0,0,0-18.29936,13.21988,43.05758,43.05758,0,0,0-9.80406-.3105,45.41828,45.41828,0,0,0-5.41218.77635A38.4647,38.4647,0,0,1,137.2499,4.06979c.6876-.05551,1.36418-.08874,2.06282-.09984Z"/></svg>